<svg width="1120" height="320" viewBox="0 0 1120 320" fill="none" xmlns="http://www.w3.org/2000/svg" role="img" aria-labelledby="dialecticaTitle dialecticaDesc">
  <title id="dialecticaTitle">DIALECTICA by TACITUS</title>
  <desc id="dialecticaDesc">Repository mark for the DIALECTICA capsule engine, showing a portable context capsule with source, time, ontology, graph, review, and PRAXIS layers.</desc>
  <rect width="1120" height="320" rx="30" fill="#F7F5EE"/>
  <rect x="18" y="18" width="1084" height="284" rx="24" fill="#FFFEFA" stroke="#D8D2C5" stroke-width="2"/>
  <path d="M322 236H1012" stroke="#E4DDD0" stroke-width="2"/>
  <path d="M322 86H1012" stroke="#EFE8DA" stroke-width="1"/>

  <g transform="translate(70 58)">
    <rect x="0" y="0" width="204" height="204" rx="34" fill="#F1EDE2" stroke="#27342F" stroke-width="3"/>
    <path d="M54 102C54 70.52 79.52 45 111 45H128C159.48 45 185 70.52 185 102C185 133.48 159.48 159 128 159H111C79.52 159 54 133.48 54 102Z" fill="#FFFEFA" stroke="#0F766E" stroke-width="6"/>
    <path d="M102 45V159" stroke="#B45309" stroke-width="4" stroke-linecap="round"/>
    <path d="M66 102H97M109 102H154M116 68L141 87M116 136L141 117" stroke="#27342F" stroke-width="4" stroke-linecap="round"/>
    <circle cx="54" cy="102" r="10" fill="#0F766E"/>
    <circle cx="116" cy="68" r="8" fill="#B45309"/>
    <circle cx="116" cy="136" r="8" fill="#B45309"/>
    <circle cx="185" cy="102" r="10" fill="#27342F"/>
    <circle cx="141" cy="87" r="7" fill="#64748B"/>
    <circle cx="141" cy="117" r="7" fill="#64748B"/>
    <path d="M30 178H174" stroke="#D8D2C5" stroke-width="2"/>
    <text x="42" y="193" fill="#64748B" font-family="ui-monospace, SFMono-Regular, Menlo, Consolas, monospace" font-size="12" font-weight="700">capsule.graph</text>
  </g>

  <g font-family="ui-monospace, SFMono-Regular, Menlo, Consolas, monospace">
    <text x="322" y="128" fill="#111827" font-size="68" font-weight="850" letter-spacing="1">DIALECTICA</text>
    <text x="328" y="166" fill="#0F766E" font-size="22" font-weight="800" letter-spacing="4">BY TACITUS</text>
    <text x="328" y="208" fill="#27342F" font-size="28" font-weight="700">PRAXIS Capsule Engine</text>
    <text x="328" y="256" fill="#64748B" font-size="16" font-weight="600">source / time / ontology / graph / reasoning / review / praxis</text>
  </g>

  <g transform="translate(846 104)" font-family="ui-monospace, SFMono-Regular, Menlo, Consolas, monospace">
    <path d="M12 38H168" stroke="#CBD5C0" stroke-width="4" stroke-linecap="round"/>
    <path d="M12 88H168" stroke="#CBD5C0" stroke-width="4" stroke-linecap="round"/>
    <path d="M42 38L82 88L122 38" stroke="#27342F" stroke-width="4" stroke-linecap="round" stroke-linejoin="round"/>
    <circle cx="12" cy="38" r="10" fill="#0F766E"/>
    <circle cx="42" cy="38" r="8" fill="#B45309"/>
    <circle cx="82" cy="88" r="10" fill="#27342F"/>
    <circle cx="122" cy="38" r="8" fill="#B45309"/>
    <circle cx="168" cy="38" r="10" fill="#0F766E"/>
    <circle cx="168" cy="88" r="10" fill="#27342F"/>
    <text x="2" y="130" fill="#64748B" font-size="12" font-weight="700">portable context object</text>
  </g>
</svg>
