<svg width="1200" height="360" viewBox="0 0 1200 360" fill="none" xmlns="http://www.w3.org/2000/svg" role="img" aria-labelledby="title desc">
  <title id="title">DIALECTICA by TACITUS</title>
  <desc id="desc">A capsule intelligence engine mark with source, time, graph, review, and PRAXIS output nodes.</desc>
  <rect width="1200" height="360" rx="28" fill="#0B1220"/>
  <rect x="28" y="28" width="1144" height="304" rx="22" fill="#101827" stroke="#2DD4BF" stroke-width="2"/>
  <circle cx="170" cy="180" r="82" fill="#0F766E" fill-opacity="0.28" stroke="#5EEAD4" stroke-width="4"/>
  <circle cx="170" cy="180" r="42" fill="#111827" stroke="#A7F3D0" stroke-width="3"/>
  <circle cx="96" cy="108" r="14" fill="#60A5FA"/>
  <circle cx="244" cy="108" r="14" fill="#FBBF24"/>
  <circle cx="96" cy="252" r="14" fill="#F472B6"/>
  <circle cx="244" cy="252" r="14" fill="#34D399"/>
  <path d="M105 117L140 150M235 117L200 150M105 243L140 210M235 243L200 210" stroke="#CBD5E1" stroke-width="4" stroke-linecap="round"/>
  <path d="M170 222V270M170 90V138M88 180H128M212 180H252" stroke="#5EEAD4" stroke-width="3" stroke-linecap="round"/>
  <text x="330" y="145" fill="#F8FAFC" font-family="Inter, Segoe UI, Arial, sans-serif" font-size="64" font-weight="800" letter-spacing="4">DIALECTICA</text>
  <text x="334" y="195" fill="#A7F3D0" font-family="Inter, Segoe UI, Arial, sans-serif" font-size="24" font-weight="600" letter-spacing="3">BY TACITUS</text>
  <text x="334" y="242" fill="#CBD5E1" font-family="Inter, Segoe UI, Arial, sans-serif" font-size="28" font-weight="500">Source-grounded PRAXIS Capsules for policy intelligence</text>
  <g font-family="Inter, Segoe UI, Arial, sans-serif" font-size="17" font-weight="700">
    <rect x="742" y="78" width="104" height="36" rx="18" fill="#1E293B" stroke="#60A5FA"/>
    <text x="768" y="102" fill="#DBEAFE">source</text>
    <rect x="866" y="78" width="94" height="36" rx="18" fill="#1E293B" stroke="#FBBF24"/>
    <text x="895" y="102" fill="#FEF3C7">time</text>
    <rect x="980" y="78" width="98" height="36" rx="18" fill="#1E293B" stroke="#34D399"/>
    <text x="1006" y="102" fill="#D1FAE5">graph</text>
    <rect x="742" y="134" width="112" height="36" rx="18" fill="#1E293B" stroke="#F472B6"/>
    <text x="766" y="158" fill="#FCE7F3">review</text>
    <rect x="874" y="134" width="118" height="36" rx="18" fill="#1E293B" stroke="#A7F3D0"/>
    <text x="898" y="158" fill="#D1FAE5">reason</text>
    <rect x="1012" y="134" width="104" height="36" rx="18" fill="#1E293B" stroke="#CBD5E1"/>
    <text x="1034" y="158" fill="#E2E8F0">PRAXIS</text>
  </g>
</svg>
